<svg id="visual" viewBox="0 0 960 500" width="960" height="500" xmlns="http://www.w3.org/2000/svg" xmlns:xlink="http://www.w3.org/1999/xlink" version="1.1"><path d="M0 335L53.3 321C106.7 307 213.3 279 320 277.7C426.7 276.3 533.3 301.7 640 301.3C746.7 301 853.3 275 906.7 262L960 249L960 501L906.7 501C853.3 501 746.7 501 640 501C533.3 501 426.7 501 320 501C213.3 501 106.7 501 53.3 501L0 501Z" fill="#2575e3"></path><path d="M0 354L53.3 355.3C106.7 356.7 213.3 359.3 320 356.7C426.7 354 533.3 346 640 339.3C746.7 332.7 853.3 327.3 906.7 324.7L960 322L960 501L906.7 501C853.3 501 746.7 501 640 501C533.3 501 426.7 501 320 501C213.3 501 106.7 501 53.3 501L0 501Z" fill="#1f60bd"></path><path d="M0 372L53.3 374.5C106.7 377 213.3 382 320 388.2C426.7 394.3 533.3 401.7 640 400.8C746.7 400 853.3 391 906.7 386.5L960 382L960 501L906.7 501C853.3 501 746.7 501 640 501C533.3 501 426.7 501 320 501C213.3 501 106.7 501 53.3 501L0 501Z" fill="#184c99"></path><path d="M0 433L53.3 431.2C106.7 429.3 213.3 425.7 320 417C426.7 408.3 533.3 394.7 640 395.3C746.7 396 853.3 411 906.7 418.5L960 426L960 501L906.7 501C853.3 501 746.7 501 640 501C533.3 501 426.7 501 320 501C213.3 501 106.7 501 53.3 501L0 501Z" fill="#103977"></path><path d="M0 440L53.3 440.8C106.7 441.7 213.3 443.3 320 448.3C426.7 453.3 533.3 461.7 640 461.8C746.7 462 853.3 454 906.7 450L960 446L960 501L906.7 501C853.3 501 746.7 501 640 501C533.3 501 426.7 501 320 501C213.3 501 106.7 501 53.3 501L0 501Z" fill="#082756"></path></svg>